<?xml version="1.0" encoding="UTF-8"?>
<svg id="Capa_2" data-name="Capa 2" xmlns="http://www.w3.org/2000/svg" viewBox="0 0 222.81 260.26">
  <defs>
    <style>
      .cls-1 {
        fill: none;
        stroke: #fff;
        stroke-miterlimit: 10;
        stroke-width: 4px;
      }
    </style>
  </defs>
  <polygon class="cls-1" points="110.86 94.31 110.86 257.91 2 251.58 2 112.45 110.86 94.31"/>
  <path class="cls-1" d="M196.66,228.99v-40.19l-26.11-1.09v-41.81l26.11,2.72v-40.02l-85.8-14.28v163.83l109.95-6.42v-23.23l-24.15.5ZM170.12,145.85l-27.89-2.9v-43.33l27.89,4.64v41.59Z"/>
  <polygon class="cls-1" points="220.81 151.13 220.81 189.8 196.66 188.8 196.66 148.61 220.81 151.13"/>
  <polygon class="cls-1" points="170.12 104.26 170.12 145.85 142.24 142.95 142.24 99.62 170.12 104.26"/>
  <polygon class="cls-1" points="196.66 148.61 196.66 188.8 170.55 187.71 170.55 145.89 196.66 148.61"/>
  <polygon class="cls-1" points="220.81 189.8 220.81 228.49 196.66 228.99 196.66 188.8 220.81 189.8"/>
  <polygon class="cls-1" points="111.41 2.67 80.58 11.66 80.58 55.25 111.41 48.18 111.41 2.67"/>
  <polygon class="cls-1" points="142.23 55.25 111.41 48.18 111.41 2.67 142.23 11.66 142.23 55.25"/>
  <polygon class="cls-1" points="137.68 57.19 111.36 64.59 85.04 57.19 111.36 49.14 137.68 57.19"/>
  <polygon class="cls-1" points="57.65 147.91 57.65 136.83 44.74 138.35 44.74 207.96 57.65 207.81 57.65 202.29 63.34 202.17 63.34 188.8 57.65 189.03 57.65 174.69 80.58 173.31 80.58 226.76 75.08 226.67 75.08 230.01 39.07 229.26 39.07 222.56 26.15 222.44 26.15 212.16 31.83 212.13 31.83 206.26 26.15 206.35 26.15 131.16 30.54 130.58 30.54 126.94 75.08 120.84 75.08 125.05 80.58 124.33 80.58 145.62 57.65 147.91"/>
  <polygon class="cls-1" points="31.83 212.13 26.15 212.16 26.15 206.35 31.83 206.26 31.83 212.13"/>
  <polygon class="cls-1" points="26.15 222.44 39.07 222.56 39.07 229.26 26.15 228.99 26.15 222.44"/>
  <polygon class="cls-1" points="80.58 120.08 80.58 124.33 75.08 125.05 75.08 120.84 80.58 120.08"/>
  <polygon class="cls-1" points="81.15 120.01 81.15 145.56 80.58 145.62 80.58 120.08 81.15 120.01"/>
  <polygon class="cls-1" points="85.04 113.29 85.04 123.74 81.15 124.26 80.58 124.33 75.08 125.05 75.08 114.74 85.04 113.29"/>
  <polygon class="cls-1" points="39.07 222.56 39.07 235.65 15.31 234.95 15.31 222.33 26.15 222.44 39.07 222.56"/>
  <polygon class="cls-1" points="31.83 206.26 31.83 212.13 26.15 212.16 18.66 212.21 18.66 206.46 26.15 206.35 31.83 206.26"/>
</svg>